<svg id="air_black_24dp" xmlns="http://www.w3.org/2000/svg" width="24" height="24" viewBox="0 0 24 24">
  <g id="Group_327" data-name="Group 327">
    <path id="Path_234" data-name="Path 234" d="M0,0H24V24H0Z" fill="none"/>
  </g>
  <g id="Group_329" data-name="Group 329">
    <g id="Group_328" data-name="Group 328">
      <path id="Path_235" data-name="Path 235" d="M14.5,17a3,3,0,0,1-6,0h2a1,1,0,1,0,1-1H2V14h9.5A3.009,3.009,0,0,1,14.5,17ZM19,6.5a3.5,3.5,0,0,0-7,0h2A1.5,1.5,0,1,1,15.5,8H2v2H15.5A3.5,3.5,0,0,0,19,6.5ZM18.5,11H2v2H18.5a1.5,1.5,0,0,1,0,3v2a3.5,3.5,0,0,0,0-7Z" fill="#fff"/>
    </g>
  </g>
</svg>
